<svg width="51" height="62" viewBox="0 0 51 62" fill="none" xmlns="http://www.w3.org/2000/svg">
<g id="f1-white.svg">
<path id="Vector" d="M22.9688 54.08C22.9688 53.8444 22.827 53.6318 22.6096 53.5413C20.0682 52.4819 18.2812 49.9751 18.2812 47.0499V24.5499C18.2812 21.6246 20.0682 19.1178 22.6096 18.0585C22.827 17.9679 22.9688 17.7552 22.9688 17.5198V17.5186H18.2812C14.398 17.5186 11.25 20.6666 11.25 24.5499V47.0499C11.25 50.9331 14.398 54.0811 18.2812 54.0811H22.9688V54.08Z" fill="white" fill-opacity="0.1"/>
<path id="Vector_2" d="M23.3711 42.4291L36.6295 29.1707" stroke="white" stroke-width="3" stroke-miterlimit="10" stroke-linecap="round" stroke-linejoin="round"/>
<path id="Vector_3" d="M30 22.206L44.0625 3.45605" stroke="white" stroke-width="3" stroke-miterlimit="10" stroke-linecap="round" stroke-linejoin="round"/>
<path id="Vector_4" d="M15.9375 3.45605L25.3895 14.0606" stroke="white" stroke-width="3" stroke-miterlimit="10" stroke-linecap="round" stroke-linejoin="round"/>
<path id="Vector_5" d="M48.75 31.1124V24.5499C48.75 20.6666 45.602 17.5186 41.7188 17.5186H38.0747C36.4508 14.7283 33.4612 12.8311 30 12.8311C26.5388 12.8311 23.5493 14.7283 21.9253 17.5186H18.2812C14.398 17.5186 11.25 20.6666 11.25 24.5499V47.0499C11.25 50.9331 14.398 54.0811 18.2812 54.0811H21.9253C23.5492 56.8715 26.5388 58.7686 30 58.7686C33.4612 58.7686 36.4507 56.8715 38.0747 54.0811H41.7188C45.602 54.0811 48.75 50.9331 48.75 47.0499V40.4874" stroke="white" stroke-width="3" stroke-miterlimit="10" stroke-linecap="round" stroke-linejoin="round"/>
</g>
</svg>
