<svg xmlns="http://www.w3.org/2000/svg" xmlns:xlink="http://www.w3.org/1999/xlink" width="500" zoomAndPan="magnify" viewBox="0 0 375 374.999991" height="500" preserveAspectRatio="xMidYMid meet" version="1.2"><defs><clipPath id="c46958fec8"><path d="M 2 0 L 372.613281 0 L 372.613281 369.726562 L 2 369.726562 Z M 2 0 "/></clipPath><clipPath id="3a1a838ff3"><path d="M 250.652344 11.136719 L 250.65625 11.136719 C 270.894531 18.503906 289.691406 29.355469 306.191406 43.199219 C 322.691406 57.046875 336.644531 73.671875 347.414062 92.324219 C 358.183594 110.980469 365.605469 131.375 369.347656 152.585938 C 373.085938 173.800781 373.085938 195.503906 369.347656 216.714844 C 365.605469 237.929688 358.183594 258.324219 347.414062 276.976562 C 336.644531 295.632812 322.691406 312.257812 306.191406 326.101562 C 289.691406 339.949219 270.894531 350.800781 250.65625 358.167969 L 250.652344 358.167969 C 230.414062 365.535156 209.039062 369.304688 187.5 369.304688 C 165.960938 369.304688 144.585938 365.535156 124.347656 358.167969 L 124.34375 358.167969 C 104.105469 350.800781 85.308594 339.949219 68.808594 326.101562 C 52.308594 312.257812 38.355469 295.632812 27.585938 276.976562 C 16.816406 258.324219 9.394531 237.929688 5.652344 216.714844 C 1.914062 195.503906 1.914062 173.800781 5.652344 152.585938 C 9.394531 131.375 16.816406 110.980469 27.585938 92.324219 C 38.355469 73.671875 52.308594 57.046875 68.808594 43.199219 C 85.308594 29.355469 104.105469 18.503906 124.34375 11.136719 L 124.347656 11.136719 C 144.585938 3.769531 165.960938 0 187.5 0 C 209.039062 0 230.414062 3.769531 250.652344 11.136719 Z M 250.652344 11.136719 "/></clipPath></defs><g id="783fbc5616"><g clip-rule="nonzero" clip-path="url(#c46958fec8)"><g clip-rule="nonzero" clip-path="url(#3a1a838ff3)"><path style=" stroke:none;fill-rule:nonzero;fill:#000000;fill-opacity:1;" d="M 0 0 L 375.503906 0 L 375.503906 369.726562 L 0 369.726562 Z M 0 0 "/></g></g><g style="fill:#ffffff;fill-opacity:1;"><g transform="translate(41.855237, 171.200324)"><path style="stroke:none" d="M 54.46875 -124.609375 C 64.914062 -124.609375 75.300781 -122.507812 85.625 -118.3125 L 81.421875 -95.9375 L 77.59375 -94.421875 C 73.257812 -97.472656 68.765625 -99.890625 64.109375 -101.671875 C 59.460938 -103.460938 55.226562 -104.359375 51.40625 -104.359375 C 46.3125 -104.359375 42.234375 -102.988281 39.171875 -100.25 C 36.117188 -97.507812 34.59375 -94.351562 34.59375 -90.78125 C 34.59375 -87.082031 36.28125 -83.957031 39.65625 -81.40625 C 43.03125 -78.863281 48.351562 -75.875 55.625 -72.4375 C 62.625 -69.25 68.320312 -66.285156 72.71875 -63.546875 C 77.113281 -60.804688 80.875 -57.207031 84 -52.75 C 87.125 -48.289062 88.6875 -42.8125 88.6875 -36.3125 C 88.6875 -29.300781 86.773438 -22.894531 82.953125 -17.09375 C 79.128906 -11.300781 73.710938 -6.71875 66.703125 -3.34375 C 59.691406 0.03125 51.601562 1.71875 42.4375 1.71875 C 30.320312 1.71875 18.148438 -0.890625 5.921875 -6.109375 L 9.5625 -30.203125 L 12.421875 -31.734375 C 17.515625 -27.265625 23.085938 -23.851562 29.140625 -21.5 C 35.191406 -19.144531 40.578125 -17.96875 45.296875 -17.96875 C 50.898438 -17.96875 55.265625 -19.335938 58.390625 -22.078125 C 61.515625 -24.816406 63.078125 -28.097656 63.078125 -31.921875 C 63.078125 -35.992188 61.382812 -39.300781 58 -41.84375 C 54.625 -44.394531 49.179688 -47.457031 41.671875 -51.03125 C 34.785156 -54.09375 29.175781 -56.957031 24.84375 -59.625 C 20.507812 -62.300781 16.8125 -65.867188 13.75 -70.328125 C 10.695312 -74.785156 9.171875 -80.203125 9.171875 -86.578125 C 9.171875 -93.710938 11.082031 -100.175781 14.90625 -105.96875 C 18.726562 -111.769531 24.078125 -116.328125 30.953125 -119.640625 C 37.835938 -122.953125 45.675781 -124.609375 54.46875 -124.609375 Z M 54.46875 -124.609375 "/></g></g><g style="fill:#ffffff;fill-opacity:1;"><g transform="translate(132.251891, 171.200324)"><path style="stroke:none" d="M 63.640625 -124.796875 C 80.972656 -124.796875 94.320312 -119.539062 103.6875 -109.03125 C 113.050781 -98.519531 117.734375 -83.582031 117.734375 -64.21875 C 117.734375 -43.0625 112.632812 -26.75 102.4375 -15.28125 C 92.25 -3.820312 77.851562 1.90625 59.25 1.90625 C 42.050781 1.90625 28.765625 -3.472656 19.390625 -14.234375 C 10.023438 -25.003906 5.34375 -40.265625 5.34375 -60.015625 C 5.34375 -80.785156 10.40625 -96.773438 20.53125 -107.984375 C 30.664062 -119.191406 45.035156 -124.796875 63.640625 -124.796875 Z M 61.34375 -103.96875 C 51.15625 -103.96875 43.765625 -100.78125 39.171875 -94.40625 C 34.585938 -88.039062 32.296875 -77.660156 32.296875 -63.265625 C 32.296875 -46.828125 34.554688 -35.101562 39.078125 -28.09375 C 43.609375 -21.082031 51.097656 -17.578125 61.546875 -17.578125 C 71.734375 -17.578125 79.117188 -20.796875 83.703125 -27.234375 C 88.296875 -33.671875 90.59375 -44.210938 90.59375 -58.859375 C 90.59375 -75.046875 88.328125 -86.609375 83.796875 -93.546875 C 79.273438 -100.492188 71.789062 -103.96875 61.34375 -103.96875 Z M 61.34375 -103.96875 "/></g></g><g style="fill:#ffffff;fill-opacity:1;"><g transform="translate(250.360098, 171.200324)"><path style="stroke:none" d="M 82.375 -19.296875 L 80.65625 0 L 14.140625 0 L 15.484375 -36.703125 L 14.140625 -123.078125 L 40.515625 -123.078125 L 38.984375 -38.984375 L 39.5625 -21.40625 L 80.84375 -21.40625 Z M 82.375 -19.296875 "/></g></g><g style="fill:#ffffff;fill-opacity:1;"><g transform="translate(21.119948, 312.104219)"><path style="stroke:none" d="M 70.53125 0 L 39.5625 0 L 1.90625 -123.078125 L 28.28125 -123.078125 L 31.34375 -106.84375 L 54.65625 -24.078125 L 56.375 -24.078125 L 83.140625 -105.5 L 86.390625 -123.078125 L 112 -123.078125 Z M 70.53125 0 "/></g></g><g style="fill:#ffffff;fill-opacity:1;"><g transform="translate(128.525758, 312.104219)"><path style="stroke:none" d="M 92.3125 -21.40625 L 93.84375 -19.296875 L 92.125 0 L 14.90625 0 L 16.25 -36.703125 L 14.90625 -123.078125 L 92.890625 -123.078125 L 94.421875 -120.984375 L 92.5 -101.671875 L 63.078125 -102.640625 L 40.90625 -102.4375 L 40.328125 -72.8125 L 61.546875 -72.4375 L 81.609375 -73.015625 L 83.140625 -71.09375 L 81.421875 -51.796875 L 59.625 -52.375 L 39.9375 -52.171875 L 39.75 -38.984375 L 40.328125 -20.453125 L 61.921875 -20.265625 Z M 92.3125 -21.40625 "/></g></g><g style="fill:#ffffff;fill-opacity:1;"><g transform="translate(221.024664, 312.104219)"><path style="stroke:none" d="M 116.59375 -38.03125 L 117.546875 0 L 89.640625 0 L 39.375 -83.328125 L 37.84375 -83.328125 L 37.65625 -42.4375 L 38.421875 0 L 14.90625 0 L 16.25 -36.3125 L 15.09375 -123.078125 L 42.8125 -123.078125 L 93.078125 -39.75 L 94.796875 -39.75 L 94.21875 -121.9375 L 118.109375 -123.46875 Z M 116.59375 -38.03125 "/></g></g></g></svg>