<svg xmlns="http://www.w3.org/2000/svg" xmlns:xlink="http://www.w3.org/1999/xlink" width="500" zoomAndPan="magnify" viewBox="0 0 375 149.999998" height="200" preserveAspectRatio="xMidYMid meet" version="1.0"><defs><g/><clipPath id="65605fba81"><path d="M 26 7.5 L 349 7.5 L 349 76.5 L 26 76.5 Z M 26 7.5 " clip-rule="nonzero"/></clipPath></defs><rect x="-37.5" width="450" fill="#ffffff" y="-15" height="179.999997" fill-opacity="1"/><rect x="-37.5" width="450" fill="#050b20" y="-15" height="179.999997" fill-opacity="1"/><g clip-path="url(#65605fba81)"><path fill="#ffffff" d="M 27.769531 42.878906 L 29.75 43.011719 C 29.96875 43.023438 30.1875 43.035156 30.410156 43.042969 L 31.730469 43.105469 C 32.167969 43.121094 32.605469 43.128906 33.046875 43.140625 C 33.921875 43.171875 34.804688 43.164062 35.679688 43.167969 C 35.898438 43.171875 36.117188 43.167969 36.335938 43.164062 L 37.652344 43.140625 L 37.980469 43.132812 L 38.308594 43.121094 C 39.183594 43.082031 40.058594 43.058594 40.929688 42.992188 C 41.367188 42.964844 41.800781 42.941406 42.234375 42.90625 L 43.539062 42.792969 C 43.757812 42.773438 43.972656 42.757812 44.191406 42.734375 L 46.136719 42.511719 L 47.429688 42.339844 L 48.074219 42.25 L 48.714844 42.144531 L 50 41.9375 L 51.277344 41.695312 L 51.917969 41.574219 C 52.128906 41.535156 52.339844 41.484375 52.550781 41.441406 L 53.816406 41.164062 C 54.027344 41.125 54.238281 41.066406 54.449219 41.015625 L 55.074219 40.863281 C 55.492188 40.757812 55.917969 40.664062 56.320312 40.546875 L 57.539062 40.210938 L 57.84375 40.125 L 58.167969 40.027344 L 58.8125 39.832031 L 59.773438 39.539062 L 60.042969 39.445312 L 61.269531 39.023438 L 62.5 38.601562 C 62.707031 38.535156 62.90625 38.457031 63.109375 38.378906 L 63.71875 38.148438 L 64.9375 37.683594 L 65.542969 37.453125 C 65.746094 37.375 65.949219 37.289062 66.148438 37.203125 L 68.5625 36.203125 L 70.960938 35.136719 C 71.359375 34.964844 71.757812 34.773438 72.152344 34.585938 L 73.347656 34.027344 L 74.238281 33.605469 L 74.535156 33.460938 L 75.726562 32.878906 L 76.914062 32.296875 C 77.308594 32.101562 77.703125 31.898438 78.097656 31.699219 L 79.285156 31.101562 C 79.679688 30.902344 80.074219 30.703125 80.46875 30.496094 L 82.839844 29.273438 L 87.609375 26.796875 L 90.015625 25.5625 L 91.222656 24.945312 L 92.433594 24.335938 L 93.65625 23.730469 L 94.261719 23.425781 L 94.878906 23.128906 L 97.347656 21.945312 L 99.84375 20.800781 C 100.257812 20.605469 100.695312 20.425781 101.121094 20.238281 L 102.414062 19.683594 L 103.058594 19.410156 L 103.382812 19.273438 L 103.695312 19.148438 L 104.941406 18.652344 L 106.191406 18.15625 L 106.351562 18.09375 L 106.5625 18.015625 L 106.882812 17.898438 L 107.523438 17.660156 L 108.8125 17.1875 L 109.453125 16.949219 C 109.667969 16.875 109.886719 16.800781 110.101562 16.726562 L 112.691406 15.828125 L 115.300781 14.980469 C 115.519531 14.910156 115.734375 14.839844 115.957031 14.769531 L 117.925781 14.171875 C 118.363281 14.042969 118.800781 13.90625 119.242188 13.777344 L 120.5625 13.410156 C 121.445312 13.160156 122.324219 12.910156 123.210938 12.683594 L 125.207031 12.171875 L 125.539062 12.085938 L 125.875 12.003906 L 128.546875 11.371094 C 135.695312 9.761719 142.957031 8.605469 150.269531 8.019531 L 151.640625 7.90625 L 151.984375 7.878906 L 152.332031 7.859375 L 154.414062 7.734375 C 154.875 7.707031 155.347656 7.675781 155.789062 7.664062 L 158.476562 7.566406 L 158.683594 7.558594 L 158.855469 7.554688 L 159.195312 7.550781 L 161.246094 7.515625 C 162.15625 7.492188 163.070312 7.5 163.980469 7.5 C 164.894531 7.503906 165.804688 7.492188 166.71875 7.519531 L 169.453125 7.574219 L 172.191406 7.679688 L 172.875 7.707031 C 173.101562 7.714844 173.332031 7.734375 173.558594 7.746094 L 176.292969 7.910156 C 176.519531 7.921875 176.75 7.9375 176.976562 7.957031 L 177.660156 8.015625 C 178.570312 8.089844 179.480469 8.15625 180.394531 8.242188 L 183.121094 8.527344 L 183.804688 8.597656 L 184.484375 8.6875 L 187.207031 9.039062 C 187.660156 9.105469 188.113281 9.175781 188.566406 9.246094 L 189.921875 9.460938 L 190.601562 9.566406 L 190.941406 9.617188 L 191.28125 9.683594 L 193.984375 10.179688 C 194.4375 10.257812 194.882812 10.355469 195.332031 10.453125 L 196.679688 10.738281 L 198.023438 11.03125 L 199.359375 11.359375 L 200.699219 11.6875 L 201.363281 11.851562 C 201.589844 11.90625 201.808594 11.972656 202.03125 12.03125 L 204.683594 12.769531 L 205.015625 12.867188 L 206.003906 13.175781 L 207.316406 13.585938 L 207.976562 13.796875 C 208.191406 13.867188 208.414062 13.929688 208.632812 14.007812 L 209.953125 14.476562 L 211.269531 14.941406 L 211.925781 15.175781 L 212.550781 15.417969 L 215.054688 16.40625 L 215.253906 16.484375 L 215.410156 16.554688 L 215.730469 16.691406 L 216.363281 16.964844 L 217.632812 17.515625 C 218.058594 17.695312 218.46875 17.894531 218.886719 18.089844 L 220.128906 18.675781 C 220.96875 19.058594 221.777344 19.484375 222.59375 19.890625 C 223 20.097656 223.414062 20.296875 223.816406 20.511719 L 225.019531 21.152344 C 228.238281 22.855469 231.367188 24.667969 234.472656 26.464844 C 237.578125 28.265625 240.65625 30.054688 243.769531 31.734375 C 244.542969 32.167969 245.328125 32.5625 246.113281 32.976562 C 246.503906 33.175781 246.890625 33.386719 247.285156 33.582031 L 249.652344 34.746094 C 250.046875 34.9375 250.449219 35.113281 250.847656 35.296875 L 252.042969 35.84375 C 252.441406 36.03125 252.839844 36.183594 253.238281 36.355469 L 254.429688 36.855469 L 255.027344 37.101562 C 255.234375 37.183594 255.445312 37.257812 255.65625 37.335938 L 256.917969 37.808594 L 257.542969 38.042969 L 257.859375 38.160156 C 257.917969 38.179688 257.867188 38.160156 257.898438 38.171875 L 257.976562 38.199219 L 258.128906 38.25 C 259.75 38.8125 261.425781 39.269531 263.117188 39.679688 C 266.511719 40.5 270.011719 41.078125 273.539062 41.636719 C 275.304688 41.917969 277.078125 42.1875 278.859375 42.476562 L 279.53125 42.585938 L 280.203125 42.703125 C 280.648438 42.777344 281.105469 42.851562 281.542969 42.933594 L 284.1875 43.417969 C 287.699219 44.054688 291.230469 44.644531 294.769531 45.257812 C 301.84375 46.484375 308.949219 47.792969 315.929688 49.707031 C 319.414062 50.671875 322.875 51.777344 326.238281 53.152344 C 327.921875 53.839844 329.578125 54.59375 331.199219 55.425781 L 331.503906 55.582031 L 331.804688 55.742188 L 332.40625 56.070312 C 332.804688 56.285156 333.199219 56.519531 333.59375 56.742188 C 333.984375 56.980469 334.378906 57.210938 334.761719 57.457031 C 335.144531 57.707031 335.53125 57.945312 335.90625 58.210938 L 336.472656 58.597656 L 337.027344 59 C 337.398438 59.265625 337.757812 59.546875 338.121094 59.832031 C 338.300781 59.96875 338.476562 60.117188 338.652344 60.261719 L 339.179688 60.703125 L 339.691406 61.15625 C 339.863281 61.308594 340.035156 61.460938 340.199219 61.621094 L 340.699219 62.09375 L 340.820312 62.210938 L 341.179688 62.582031 C 341.339844 62.746094 341.503906 62.910156 341.65625 63.078125 L 342.117188 63.589844 C 342.195312 63.675781 342.273438 63.757812 342.347656 63.84375 L 342.566406 64.109375 L 343.007812 64.636719 L 343.425781 65.179688 C 343.566406 65.363281 343.707031 65.542969 343.835938 65.730469 L 344.230469 66.292969 C 344.296875 66.386719 344.359375 66.484375 344.421875 66.582031 L 344.609375 66.871094 L 344.792969 67.160156 C 344.855469 67.253906 344.917969 67.351562 344.972656 67.453125 L 345.320312 68.046875 C 345.375 68.144531 345.4375 68.242188 345.488281 68.339844 L 345.964844 69.253906 L 346.257812 69.875 C 346.355469 70.082031 346.453125 70.285156 346.539062 70.5 L 346.800781 71.132812 L 346.863281 71.292969 L 346.921875 71.453125 L 347.039062 71.777344 C 347.117188 71.988281 347.199219 72.203125 347.269531 72.417969 L 347.472656 73.074219 L 347.574219 73.398438 C 347.605469 73.507812 347.632812 73.621094 347.664062 73.730469 L 347.835938 74.394531 L 347.882812 74.5625 C 347.898438 74.617188 347.90625 74.671875 347.917969 74.726562 L 348.132812 75.710938 C 348.171875 75.90625 348.054688 76.097656 347.863281 76.148438 C 347.664062 76.199219 347.460938 76.078125 347.410156 75.882812 L 347.246094 75.230469 L 347.160156 74.90625 C 347.144531 74.851562 347.132812 74.792969 347.117188 74.742188 L 347.070312 74.582031 L 346.878906 73.957031 C 346.847656 73.851562 346.820312 73.746094 346.78125 73.644531 L 346.453125 72.707031 C 346.375 72.503906 346.289062 72.300781 346.207031 72.09375 L 346.019531 71.636719 L 345.953125 71.488281 L 345.675781 70.886719 C 345.589844 70.6875 345.484375 70.492188 345.386719 70.296875 L 345.082031 69.710938 L 344.757812 69.140625 L 344.59375 68.855469 C 344.542969 68.757812 344.480469 68.667969 344.421875 68.574219 L 344.070312 68.019531 C 344.015625 67.921875 343.949219 67.835938 343.890625 67.742188 L 343.699219 67.472656 L 343.511719 67.203125 C 343.453125 67.113281 343.386719 67.023438 343.324219 66.9375 L 342.925781 66.410156 C 342.796875 66.234375 342.652344 66.066406 342.511719 65.898438 L 342.097656 65.394531 L 341.65625 64.902344 L 341.4375 64.660156 C 341.363281 64.578125 341.285156 64.5 341.210938 64.421875 L 340.75 63.949219 C 340.601562 63.792969 340.4375 63.644531 340.277344 63.492188 L 340.042969 63.265625 L 339.921875 63.152344 L 339.800781 63.042969 L 339.308594 62.605469 C 339.148438 62.457031 338.976562 62.320312 338.808594 62.179688 L 338.300781 61.761719 L 337.777344 61.359375 C 337.609375 61.222656 337.433594 61.089844 337.253906 60.960938 C 336.898438 60.703125 336.546875 60.445312 336.175781 60.203125 L 335.632812 59.835938 L 335.074219 59.484375 C 334.707031 59.242188 334.324219 59.023438 333.949219 58.796875 C 333.757812 58.683594 333.566406 58.578125 333.375 58.46875 L 332.800781 58.144531 C 332.40625 57.941406 332.023438 57.730469 331.628906 57.53125 L 331.035156 57.238281 L 330.742188 57.089844 L 330.441406 56.949219 C 328.847656 56.195312 327.21875 55.515625 325.558594 54.902344 C 322.242188 53.671875 318.824219 52.699219 315.371094 51.871094 C 311.917969 51.039062 308.421875 50.359375 304.90625 49.757812 C 301.394531 49.152344 297.863281 48.632812 294.316406 48.128906 C 290.773438 47.625 287.21875 47.144531 283.65625 46.601562 L 280.996094 46.195312 C 280.554688 46.125 280.121094 46.070312 279.683594 46.003906 L 279.027344 45.914062 L 278.363281 45.824219 C 276.597656 45.589844 274.824219 45.371094 273.039062 45.144531 C 271.253906 44.914062 269.464844 44.675781 267.667969 44.402344 C 265.875 44.128906 264.074219 43.808594 262.273438 43.429688 C 260.472656 43.050781 258.671875 42.609375 256.890625 42.046875 L 256.71875 41.996094 L 256.636719 41.96875 C 256.617188 41.964844 256.507812 41.929688 256.515625 41.929688 L 256.199219 41.824219 L 255.5625 41.605469 L 254.289062 41.171875 C 254.078125 41.097656 253.867188 41.027344 253.652344 40.953125 L 253 40.703125 L 251.699219 40.203125 C 250.820312 39.878906 249.988281 39.511719 249.140625 39.15625 C 248.71875 38.976562 248.292969 38.800781 247.878906 38.613281 L 246.632812 38.046875 L 245.386719 37.472656 C 244.972656 37.28125 244.566406 37.078125 244.15625 36.878906 C 243.339844 36.480469 242.515625 36.085938 241.710938 35.667969 C 238.472656 34.023438 235.304688 32.285156 232.164062 30.570312 C 229.023438 28.851562 225.890625 27.160156 222.738281 25.578125 L 221.554688 24.984375 C 221.160156 24.785156 220.761719 24.601562 220.367188 24.414062 C 219.570312 24.042969 218.785156 23.648438 217.980469 23.304688 L 216.78125 22.773438 C 216.378906 22.59375 215.984375 22.414062 215.578125 22.253906 L 213.761719 21.515625 L 213.460938 21.394531 L 213.308594 21.332031 C 213.304688 21.332031 213.304688 21.332031 213.304688 21.328125 C 213.304688 21.332031 213.300781 21.332031 213.273438 21.320312 L 213.195312 21.289062 L 210.671875 20.363281 L 210.039062 20.132812 L 209.425781 19.929688 L 208.199219 19.53125 L 206.972656 19.128906 C 206.769531 19.058594 206.554688 19.003906 206.347656 18.9375 L 205.71875 18.757812 L 203.832031 18.207031 L 203.515625 18.117188 L 203.199219 18.035156 L 200.660156 17.382812 C 200.449219 17.332031 200.238281 17.269531 200.023438 17.222656 L 199.382812 17.082031 L 198.101562 16.792969 L 196.824219 16.507812 L 195.53125 16.261719 L 194.246094 16.011719 C 193.816406 15.929688 193.386719 15.839844 192.953125 15.777344 L 190.359375 15.355469 L 190.035156 15.300781 L 189.710938 15.257812 L 189.058594 15.167969 L 187.753906 14.996094 C 187.316406 14.9375 186.886719 14.871094 186.449219 14.820312 L 185.144531 14.679688 L 183.832031 14.539062 L 183.179688 14.46875 L 179.898438 14.195312 C 179.023438 14.136719 178.144531 14.09375 177.265625 14.039062 L 176.609375 14 C 176.390625 13.988281 176.171875 13.976562 175.953125 13.96875 L 173.316406 13.878906 C 173.09375 13.875 172.875 13.863281 172.65625 13.859375 L 169.355469 13.824219 L 166.71875 13.851562 C 165.835938 13.851562 164.957031 13.886719 164.078125 13.914062 C 163.195312 13.941406 162.316406 13.960938 161.433594 14.015625 L 158.832031 14.148438 L 156.148438 14.339844 C 155.695312 14.367188 155.273438 14.414062 154.839844 14.453125 L 153.550781 14.574219 L 152.902344 14.636719 L 152.582031 14.667969 L 152.253906 14.707031 L 150.949219 14.859375 C 143.992188 15.664062 137.097656 17.007812 130.292969 18.695312 C 126.894531 19.546875 123.515625 20.5 120.160156 21.53125 L 118.90625 21.921875 L 118.277344 22.117188 L 117.648438 22.320312 L 115.148438 23.140625 L 112.65625 24 C 112.449219 24.070312 112.242188 24.140625 112.03125 24.210938 L 111.414062 24.4375 L 110.171875 24.882812 L 109.554688 25.105469 L 109.242188 25.21875 L 109.164062 25.246094 C 109.164062 25.246094 109.066406 25.285156 109.136719 25.253906 L 108.980469 25.3125 L 107.726562 25.796875 L 106.160156 26.398438 L 105.859375 26.519531 L 105.265625 26.765625 L 104.078125 27.253906 C 103.683594 27.414062 103.289062 27.574219 102.882812 27.753906 L 100.476562 28.800781 L 98.066406 29.886719 L 97.464844 30.15625 L 96.863281 30.4375 L 94.453125 31.5625 L 93.246094 32.132812 L 90.832031 33.28125 C 84.386719 36.359375 77.816406 39.515625 70.925781 42.101562 C 67.472656 43.378906 63.941406 44.496094 60.324219 45.386719 L 59.667969 45.546875 L 59.34375 45.625 L 58.996094 45.699219 L 57.601562 45.992188 C 57.132812 46.097656 56.679688 46.167969 56.21875 46.25 L 55.53125 46.371094 C 55.304688 46.414062 55.074219 46.457031 54.84375 46.492188 L 53.46875 46.695312 C 53.238281 46.730469 53.007812 46.769531 52.777344 46.792969 L 52.085938 46.875 L 50.707031 47.039062 L 49.320312 47.164062 L 48.628906 47.226562 L 46.554688 47.359375 C 46.09375 47.382812 45.632812 47.394531 45.171875 47.410156 L 44.480469 47.433594 C 44.25 47.445312 44.019531 47.441406 43.789062 47.445312 L 42.40625 47.460938 C 41.945312 47.464844 41.484375 47.445312 41.023438 47.441406 C 40.105469 47.4375 39.183594 47.390625 38.265625 47.355469 L 37.925781 47.339844 L 36.207031 47.222656 C 35.980469 47.210938 35.75 47.195312 35.519531 47.171875 C 34.609375 47.085938 33.695312 47.015625 32.785156 46.902344 C 32.511719 46.871094 32.242188 46.839844 31.972656 46.808594 C 32.144531 47.046875 32.324219 47.285156 32.484375 47.535156 C 33.019531 48.363281 33.480469 49.238281 33.851562 50.15625 C 34.21875 51.078125 34.484375 52.039062 34.636719 53.015625 C 34.714844 53.507812 34.753906 54 34.773438 54.492188 C 34.789062 54.988281 34.769531 55.476562 34.722656 55.964844 C 34.675781 56.449219 34.601562 56.933594 34.496094 57.40625 C 34.449219 57.644531 34.386719 57.875 34.328125 58.109375 C 34.257812 58.339844 34.195312 58.574219 34.113281 58.796875 C 33.988281 59.179688 33.839844 59.546875 33.679688 59.910156 C 33.933594 59.707031 34.191406 59.507812 34.457031 59.316406 C 34.632812 59.1875 34.808594 59.0625 34.984375 58.9375 C 35.160156 58.808594 35.339844 58.6875 35.519531 58.566406 L 35.785156 58.378906 C 35.875 58.316406 35.964844 58.253906 36.054688 58.191406 L 36.59375 57.828125 L 36.863281 57.644531 L 37.140625 57.464844 C 37.320312 57.347656 37.503906 57.230469 37.6875 57.113281 C 38.050781 56.882812 38.417969 56.660156 38.78125 56.4375 C 39.242188 56.167969 39.703125 55.910156 40.160156 55.660156 C 40.664062 55.257812 41.183594 54.855469 41.734375 54.460938 C 42.511719 53.894531 43.332031 53.324219 44.191406 52.761719 C 44.410156 52.621094 44.628906 52.484375 44.847656 52.34375 C 45.070312 52.207031 45.292969 52.066406 45.519531 51.929688 C 45.746094 51.792969 45.972656 51.65625 46.203125 51.519531 C 46.4375 51.386719 46.671875 51.25 46.910156 51.117188 C 48.800781 50.046875 50.863281 49.03125 53.085938 48.140625 C 54.195312 47.691406 55.339844 47.269531 56.523438 46.875 C 57.703125 46.476562 58.917969 46.117188 60.160156 45.78125 C 62.648438 45.113281 65.253906 44.574219 67.941406 44.132812 C 69.28125 43.910156 70.648438 43.714844 72.027344 43.542969 C 73.414062 43.371094 74.8125 43.222656 76.226562 43.089844 C 76.9375 43.023438 77.648438 42.964844 78.363281 42.90625 C 78.726562 42.878906 79.085938 42.851562 79.453125 42.828125 C 79.808594 42.800781 80.167969 42.78125 80.523438 42.757812 L 81.0625 42.722656 C 81.246094 42.714844 81.433594 42.707031 81.617188 42.699219 C 81.988281 42.679688 82.355469 42.664062 82.730469 42.648438 C 83.464844 42.628906 84.207031 42.597656 84.953125 42.59375 C 86.4375 42.5625 87.941406 42.582031 89.449219 42.621094 C 89.828125 42.636719 90.207031 42.648438 90.582031 42.65625 C 90.964844 42.675781 91.339844 42.691406 91.722656 42.707031 C 92.101562 42.726562 92.480469 42.75 92.863281 42.773438 C 93.242188 42.792969 93.621094 42.816406 94.003906 42.847656 C 97.054688 43.058594 100.128906 43.390625 103.199219 43.8125 C 109.34375 44.652344 115.472656 45.820312 121.574219 46.773438 C 123.101562 47.007812 124.621094 47.230469 126.148438 47.4375 C 127.6875 47.640625 129.222656 47.84375 130.753906 48.046875 C 132.285156 48.246094 133.816406 48.441406 135.34375 48.625 C 136.867188 48.816406 138.386719 48.996094 139.902344 49.167969 C 145.964844 49.863281 151.9375 50.425781 157.722656 50.800781 C 163.507812 51.179688 169.105469 51.371094 174.417969 51.355469 C 177.070312 51.34375 179.652344 51.285156 182.148438 51.179688 C 184.640625 51.070312 187.050781 50.90625 189.359375 50.714844 C 191.667969 50.511719 193.875 50.261719 195.972656 49.988281 C 198.066406 49.710938 200.046875 49.394531 201.90625 49.066406 C 203.757812 48.734375 205.492188 48.375 207.085938 48.027344 C 207.484375 47.933594 207.875 47.84375 208.257812 47.757812 C 208.636719 47.664062 209.011719 47.574219 209.375 47.488281 C 209.738281 47.402344 210.09375 47.308594 210.441406 47.222656 C 210.785156 47.128906 211.125 47.050781 211.453125 46.960938 C 212.109375 46.78125 212.730469 46.617188 213.308594 46.449219 C 213.601562 46.367188 213.886719 46.285156 214.15625 46.207031 C 214.429688 46.128906 214.691406 46.050781 214.945312 45.972656 C 215.453125 45.824219 215.917969 45.675781 216.347656 45.542969 C 216.773438 45.410156 217.160156 45.285156 217.507812 45.171875 C 217.855469 45.054688 218.164062 44.960938 218.425781 44.871094 C 218.6875 44.777344 218.910156 44.703125 219.089844 44.644531 C 219.445312 44.519531 219.632812 44.457031 219.632812 44.457031 C 219.632812 44.457031 219.457031 44.539062 219.113281 44.699219 C 218.773438 44.859375 218.265625 45.101562 217.59375 45.394531 C 217.261719 45.542969 216.886719 45.710938 216.472656 45.886719 C 216.054688 46.0625 215.605469 46.253906 215.113281 46.449219 C 214.867188 46.550781 214.609375 46.652344 214.347656 46.757812 C 214.082031 46.867188 213.804688 46.96875 213.519531 47.078125 C 212.953125 47.300781 212.34375 47.519531 211.699219 47.757812 C 209.125 48.6875 205.953125 49.703125 202.242188 50.636719 C 200.390625 51.113281 198.40625 51.558594 196.300781 51.980469 C 194.195312 52.402344 191.972656 52.78125 189.636719 53.121094 C 184.976562 53.792969 179.886719 54.28125 174.492188 54.527344 C 169.101562 54.773438 163.40625 54.78125 157.53125 54.5625 C 151.652344 54.347656 145.59375 53.90625 139.464844 53.300781 C 137.929688 53.148438 136.394531 52.988281 134.851562 52.820312 C 133.3125 52.648438 131.769531 52.464844 130.222656 52.28125 C 129.453125 52.1875 128.679688 52.089844 127.902344 51.996094 C 127.132812 51.894531 126.359375 51.796875 125.585938 51.699219 L 124.417969 51.542969 C 124.027344 51.492188 123.640625 51.441406 123.25 51.382812 C 122.46875 51.277344 121.691406 51.15625 120.917969 51.039062 C 114.703125 50.089844 108.601562 48.902344 102.601562 48.035156 C 101.101562 47.816406 99.609375 47.617188 98.125 47.441406 C 96.636719 47.269531 95.15625 47.109375 93.6875 46.992188 C 90.746094 46.742188 87.835938 46.609375 84.972656 46.597656 C 84.253906 46.585938 83.542969 46.601562 82.832031 46.601562 C 82.480469 46.609375 82.132812 46.621094 81.785156 46.628906 C 81.605469 46.632812 81.433594 46.636719 81.257812 46.640625 C 81.078125 46.644531 80.902344 46.652344 80.722656 46.660156 C 80.363281 46.671875 80.003906 46.6875 79.648438 46.703125 C 79.300781 46.714844 78.957031 46.730469 78.609375 46.75 C 78.257812 46.765625 77.90625 46.785156 77.558594 46.800781 C 77.210938 46.820312 76.863281 46.839844 76.515625 46.859375 C 75.128906 46.941406 73.761719 47.042969 72.414062 47.160156 C 71.066406 47.277344 69.738281 47.414062 68.429688 47.570312 C 67.125 47.730469 65.84375 47.914062 64.585938 48.121094 C 63.328125 48.324219 62.09375 48.554688 60.894531 48.8125 C 58.484375 49.332031 56.1875 49.949219 54.027344 50.675781 C 51.871094 51.410156 49.84375 52.234375 47.960938 53.132812 C 47.019531 53.582031 46.117188 54.050781 45.246094 54.523438 C 44.378906 55 43.550781 55.488281 42.757812 55.976562 C 41.960938 56.46875 41.199219 56.957031 40.476562 57.453125 C 39.75 57.945312 39.0625 58.433594 38.410156 58.921875 C 37.753906 59.402344 37.136719 59.878906 36.546875 60.339844 C 36.039062 60.746094 35.554688 61.136719 35.09375 61.519531 C 35.027344 61.589844 34.957031 61.65625 34.890625 61.722656 C 34.601562 62 34.328125 62.285156 34.050781 62.550781 C 33.492188 63.089844 32.949219 63.601562 32.433594 64.089844 C 32.175781 64.332031 31.933594 64.578125 31.695312 64.8125 C 31.574219 64.925781 31.453125 65.039062 31.339844 65.15625 C 31.226562 65.269531 31.113281 65.382812 31.003906 65.492188 C 30.554688 65.933594 30.167969 66.351562 29.800781 66.714844 C 29.707031 66.804688 29.628906 66.898438 29.546875 66.984375 C 29.460938 67.074219 29.382812 67.160156 29.304688 67.242188 C 29.148438 67.402344 29.003906 67.550781 28.875 67.683594 C 28.621094 67.960938 28.414062 68.175781 28.269531 68.320312 C 28.125 68.46875 28.042969 68.542969 28.042969 68.542969 L 28.039062 68.546875 C 28.011719 68.574219 27.976562 68.582031 27.9375 68.574219 C 27.878906 68.558594 27.839844 68.5 27.855469 68.441406 C 27.855469 68.441406 27.878906 68.332031 27.9375 68.132812 C 27.992188 67.933594 28.082031 67.644531 28.210938 67.273438 C 28.277344 67.09375 28.359375 66.898438 28.449219 66.683594 C 28.546875 66.46875 28.636719 66.230469 28.757812 65.996094 C 28.878906 65.753906 29.011719 65.5 29.15625 65.234375 C 29.296875 64.964844 29.46875 64.699219 29.640625 64.417969 C 29.730469 64.273438 29.816406 64.132812 29.914062 63.988281 C 30.007812 63.847656 30.113281 63.703125 30.214844 63.554688 C 30.429688 63.269531 30.636719 62.964844 30.882812 62.675781 C 31.042969 62.46875 31.222656 62.269531 31.402344 62.066406 C 31.589844 61.675781 31.773438 61.285156 31.933594 60.886719 C 31.972656 60.785156 32.015625 60.683594 32.050781 60.582031 L 32.164062 60.273438 L 32.21875 60.121094 L 32.269531 59.96875 L 32.371094 59.660156 C 32.492188 59.246094 32.609375 58.832031 32.6875 58.410156 C 32.734375 58.199219 32.761719 57.988281 32.796875 57.78125 C 32.824219 57.570312 32.855469 57.359375 32.871094 57.148438 C 32.914062 56.730469 32.925781 56.3125 32.914062 55.894531 C 32.910156 55.6875 32.894531 55.480469 32.878906 55.273438 C 32.855469 55.066406 32.835938 54.863281 32.804688 54.65625 C 32.742188 54.25 32.660156 53.847656 32.554688 53.449219 C 32.445312 53.054688 32.3125 52.667969 32.15625 52.285156 C 32.003906 51.90625 31.828125 51.535156 31.636719 51.171875 C 31.253906 50.445312 30.792969 49.761719 30.273438 49.117188 C 29.753906 48.476562 29.175781 47.875 28.5625 47.320312 C 28.253906 47.042969 27.9375 46.777344 27.609375 46.527344 C 27.449219 46.40625 27.285156 46.28125 27.121094 46.167969 C 27.035156 46.109375 26.957031 46.054688 26.875 46 L 26.753906 45.921875 L 26.699219 45.886719 C 26.683594 45.878906 26.65625 45.863281 26.660156 45.863281 L 27.769531 42.878906 " fill-opacity="1" fill-rule="nonzero"/></g><g fill="#ffffff" fill-opacity="1"><g transform="translate(71.231162, 107.982935)"><g><path d="M 36.730469 -10.464844 C 36.730469 -8.304688 36.183594 -6.402344 35.085938 -4.746094 C 33.988281 -3.09375 32.253906 -1.796875 29.882812 -0.863281 C 27.507812 0.0703125 24.363281 0.539062 20.441406 0.539062 C 15.875 0.539062 12.214844 -0.0625 9.464844 -1.265625 C 6.714844 -2.472656 4.71875 -4.207031 3.480469 -6.472656 C 2.238281 -8.738281 1.617188 -11.46875 1.617188 -14.671875 L 10.246094 -14.671875 C 10.246094 -11.757812 11.046875 -9.753906 12.648438 -8.65625 C 14.25 -7.558594 16.9375 -7.011719 20.710938 -7.011719 C 23.480469 -7.011719 25.402344 -7.316406 26.484375 -7.929688 C 27.5625 -8.539062 28.101562 -9.347656 28.101562 -10.355469 C 28.101562 -11.289062 27.632812 -12.074219 26.699219 -12.703125 C 25.765625 -13.332031 24.53125 -13.925781 23.003906 -14.480469 C 21.476562 -15.039062 19.777344 -15.625 17.90625 -16.234375 C 15.894531 -16.917969 14.003906 -17.59375 12.242188 -18.257812 C 10.480469 -18.921875 8.933594 -19.703125 7.605469 -20.605469 C 6.273438 -21.503906 5.230469 -22.582031 4.476562 -23.839844 C 3.722656 -25.097656 3.34375 -26.664062 3.34375 -28.53125 C 3.34375 -31.769531 4.613281 -34.25 7.148438 -35.976562 C 9.679688 -37.703125 13.394531 -38.566406 18.285156 -38.566406 C 22.167969 -38.566406 25.359375 -37.960938 27.859375 -36.757812 C 30.355469 -35.554688 32.199219 -33.933594 33.386719 -31.902344 C 34.574219 -29.871094 35.167969 -27.597656 35.167969 -25.082031 L 26.535156 -25.082031 C 26.535156 -26.625 26.175781 -27.832031 25.457031 -28.695312 C 24.738281 -29.558594 23.757812 -30.160156 22.519531 -30.5 C 21.277344 -30.84375 19.867188 -31.011719 18.285156 -31.011719 C 16.34375 -31.011719 14.804688 -30.789062 13.671875 -30.339844 C 12.539062 -29.890625 11.972656 -29.179688 11.972656 -28.207031 C 11.972656 -27.632812 12.136719 -27.148438 12.460938 -26.753906 C 12.78125 -26.355469 13.449219 -25.933594 14.453125 -25.484375 C 15.460938 -25.035156 16.972656 -24.46875 18.984375 -23.785156 C 20.386719 -23.320312 21.890625 -22.804688 23.488281 -22.25 C 25.089844 -21.691406 26.671875 -21.0625 28.234375 -20.359375 C 29.800781 -19.660156 31.21875 -18.84375 32.496094 -17.90625 C 33.773438 -16.972656 34.796875 -15.894531 35.570312 -14.671875 C 36.34375 -13.449219 36.730469 -12.046875 36.730469 -10.464844 Z M 36.730469 -10.464844 "/></g></g></g><g fill="#ffffff" fill-opacity="1"><g transform="translate(109.574575, 107.982935)"><g><path d="M 2.695312 -19.039062 C 2.695312 -22.742188 3.480469 -26.058594 5.042969 -28.992188 C 6.605469 -31.921875 8.835938 -34.25 11.730469 -35.976562 C 14.625 -37.703125 18.085938 -38.566406 22.113281 -38.566406 C 26.140625 -38.566406 29.59375 -37.703125 32.46875 -35.976562 C 35.347656 -34.25 37.566406 -31.921875 39.132812 -28.992188 C 40.695312 -26.058594 41.476562 -22.742188 41.476562 -19.039062 C 41.476562 -15.335938 40.695312 -12.011719 39.132812 -9.0625 C 37.566406 -6.113281 35.347656 -3.777344 32.46875 -2.050781 C 29.59375 -0.324219 26.140625 0.539062 22.113281 0.539062 C 18.085938 0.539062 14.625 -0.324219 11.730469 -2.050781 C 8.835938 -3.777344 6.605469 -6.113281 5.042969 -9.0625 C 3.480469 -12.011719 2.695312 -15.335938 2.695312 -19.039062 Z M 11.328125 -19.039062 C 11.328125 -15.371094 12.226562 -12.449219 14.023438 -10.273438 C 15.820312 -8.097656 18.519531 -7.011719 22.113281 -7.011719 C 25.710938 -7.011719 28.398438 -8.097656 30.175781 -10.273438 C 31.957031 -12.449219 32.847656 -15.371094 32.847656 -19.039062 C 32.847656 -22.671875 31.957031 -25.574219 30.175781 -27.75 C 28.398438 -29.925781 25.710938 -31.011719 22.113281 -31.011719 C 18.519531 -31.011719 15.820312 -29.925781 14.023438 -27.75 C 12.226562 -25.574219 11.328125 -22.671875 11.328125 -19.039062 Z M 11.328125 -19.039062 "/></g></g></g><g fill="#ffffff" fill-opacity="1"><g transform="translate(153.742294, 107.982935)"><g><path d="M 30.367188 0 L 7.875 0.539062 C 6.402344 0.574219 5.257812 0.199219 4.449219 -0.59375 C 3.640625 -1.382812 3.234375 -2.515625 3.234375 -3.992188 L 3.234375 -38.023438 L 11.867188 -38.023438 L 11.867188 -7.011719 L 30.367188 -7.550781 Z M 30.367188 0 "/></g></g></g><g fill="#ffffff" fill-opacity="1"><g transform="translate(185.182816, 107.982935)"><g><path d="M 13.914062 0 L 1.078125 -38.023438 L 9.816406 -38.023438 L 19.847656 -7.550781 L 22.007812 -7.550781 L 32.09375 -38.023438 L 40.828125 -38.023438 L 27.9375 0 Z M 13.914062 0 "/></g></g></g><g fill="#ffffff" fill-opacity="1"><g transform="translate(227.085506, 107.982935)"><g><path d="M 30.367188 0 L 3.234375 0 L 3.234375 -38.023438 L 30.367188 -38.023438 L 30.367188 -30.472656 L 11.867188 -30.472656 L 11.867188 -22.816406 L 27.667969 -22.816406 L 27.667969 -15.265625 L 11.867188 -15.265625 L 11.867188 -7.550781 L 30.367188 -7.550781 Z M 30.367188 0 "/></g></g></g><g fill="#ffffff" fill-opacity="1"><g transform="translate(259.604582, 107.982935)"><g><path d="M 32.253906 -7.550781 L 32.253906 -38.023438 L 40.882812 -38.023438 L 40.882812 0 L 23.894531 0 L 14.292969 -30.472656 L 11.867188 -30.472656 L 11.867188 0 L 3.234375 0 L 3.234375 -38.023438 L 20.226562 -38.023438 L 29.828125 -7.550781 Z M 32.253906 -7.550781 "/></g></g></g><g fill="#ffffff" fill-opacity="1"><g transform="translate(101.752417, 136.887856)"><g><path d="M 7.890625 0.226562 C 6.542969 0.226562 5.328125 -0.0664062 4.238281 -0.652344 C 3.148438 -1.238281 2.292969 -2.046875 1.671875 -3.085938 C 1.046875 -4.125 0.734375 -5.296875 0.734375 -6.605469 C 0.734375 -7.914062 1.046875 -9.089844 1.671875 -10.128906 C 2.292969 -11.167969 3.148438 -11.976562 4.238281 -12.5625 C 5.328125 -13.148438 6.550781 -13.441406 7.910156 -13.441406 C 9.054688 -13.441406 10.089844 -13.238281 11.015625 -12.835938 C 11.941406 -12.433594 12.71875 -11.855469 13.347656 -11.101562 L 11.382812 -9.289062 C 10.488281 -10.320312 9.382812 -10.835938 8.0625 -10.835938 C 7.242188 -10.835938 6.511719 -10.65625 5.871094 -10.296875 C 5.230469 -9.9375 4.730469 -9.4375 4.371094 -8.796875 C 4.011719 -8.15625 3.832031 -7.425781 3.832031 -6.605469 C 3.832031 -5.789062 4.011719 -5.058594 4.371094 -4.417969 C 4.730469 -3.777344 5.230469 -3.273438 5.871094 -2.917969 C 6.511719 -2.558594 7.242188 -2.378906 8.0625 -2.378906 C 9.382812 -2.378906 10.488281 -2.902344 11.382812 -3.945312 L 13.347656 -2.132812 C 12.71875 -1.367188 11.9375 -0.78125 11.003906 -0.378906 C 10.074219 0.0234375 9.035156 0.226562 7.890625 0.226562 Z M 7.890625 0.226562 "/></g></g></g><g fill="#ffffff" fill-opacity="1"><g transform="translate(120.037454, 136.887856)"><g><path d="M 10.269531 -2.832031 L 4.132812 -2.832031 L 2.964844 0 L -0.167969 0 L 5.71875 -13.214844 L 8.742188 -13.214844 L 14.648438 0 L 11.441406 0 Z M 9.304688 -5.152344 L 7.210938 -10.210938 L 5.117188 -5.152344 Z M 9.304688 -5.152344 "/></g></g></g><g fill="#ffffff" fill-opacity="1"><g transform="translate(139.209397, 136.887856)"><g><path d="M 9.984375 0 L 7.4375 -3.679688 L 4.625 -3.679688 L 4.625 0 L 1.566406 0 L 1.566406 -13.214844 L 7.285156 -13.214844 C 8.457031 -13.214844 9.472656 -13.019531 10.335938 -12.628906 C 11.199219 -12.238281 11.863281 -11.683594 12.328125 -10.96875 C 12.792969 -10.25 13.027344 -9.402344 13.027344 -8.417969 C 13.027344 -7.4375 12.789062 -6.589844 12.316406 -5.878906 C 11.84375 -5.167969 11.175781 -4.625 10.308594 -4.246094 L 13.269531 0 Z M 9.929688 -8.417969 C 9.929688 -9.160156 9.691406 -9.730469 9.210938 -10.128906 C 8.734375 -10.523438 8.035156 -10.722656 7.117188 -10.722656 L 4.625 -10.722656 L 4.625 -6.117188 L 7.117188 -6.117188 C 8.035156 -6.117188 8.734375 -6.316406 9.210938 -6.71875 C 9.691406 -7.125 9.929688 -7.6875 9.929688 -8.417969 Z M 9.929688 -8.417969 "/></g></g></g><g fill="#ffffff" fill-opacity="1"><g transform="translate(157.796454, 136.887856)"><g/></g></g><g fill="#ffffff" fill-opacity="1"><g transform="translate(167.855536, 136.887856)"><g><path d="M 1.566406 -13.214844 L 4.625 -13.214844 L 4.625 -2.492188 L 11.25 -2.492188 L 11.25 0 L 1.566406 0 Z M 1.566406 -13.214844 "/></g></g></g><g fill="#ffffff" fill-opacity="1"><g transform="translate(183.97099, 136.887856)"><g><path d="M 1.566406 -13.214844 L 4.625 -13.214844 L 4.625 0 L 1.566406 0 Z M 1.566406 -13.214844 "/></g></g></g><g fill="#ffffff" fill-opacity="1"><g transform="translate(194.879098, 136.887856)"><g><path d="M 5.910156 0.226562 C 4.863281 0.226562 3.855469 0.0859375 2.878906 -0.199219 C 1.902344 -0.480469 1.121094 -0.847656 0.527344 -1.300781 L 1.566406 -3.605469 C 2.132812 -3.191406 2.804688 -2.855469 3.585938 -2.605469 C 4.367188 -2.351562 5.148438 -2.226562 5.925781 -2.226562 C 6.796875 -2.226562 7.4375 -2.355469 7.851562 -2.613281 C 8.269531 -2.871094 8.476562 -3.214844 8.476562 -3.644531 C 8.476562 -3.957031 8.351562 -4.21875 8.109375 -4.425781 C 7.863281 -4.632812 7.546875 -4.800781 7.164062 -4.925781 C 6.78125 -5.054688 6.261719 -5.191406 5.605469 -5.34375 C 4.601562 -5.582031 3.777344 -5.820312 3.132812 -6.058594 C 2.492188 -6.296875 1.941406 -6.683594 1.480469 -7.210938 C 1.023438 -7.738281 0.792969 -8.445312 0.792969 -9.324219 C 0.792969 -10.09375 1 -10.789062 1.414062 -11.410156 C 1.832031 -12.035156 2.457031 -12.527344 3.292969 -12.894531 C 4.132812 -13.257812 5.152344 -13.441406 6.363281 -13.441406 C 7.203125 -13.441406 8.027344 -13.339844 8.835938 -13.140625 C 9.640625 -12.9375 10.34375 -12.648438 10.949219 -12.269531 L 10.003906 -9.949219 C 8.785156 -10.640625 7.5625 -10.988281 6.34375 -10.988281 C 5.488281 -10.988281 4.855469 -10.847656 4.445312 -10.570312 C 4.035156 -10.292969 3.832031 -9.929688 3.832031 -9.476562 C 3.832031 -9.023438 4.066406 -8.6875 4.539062 -8.464844 C 5.011719 -8.246094 5.734375 -8.027344 6.703125 -7.816406 C 7.707031 -7.574219 8.53125 -7.335938 9.175781 -7.097656 C 9.816406 -6.859375 10.367188 -6.480469 10.828125 -5.964844 C 11.285156 -5.449219 11.515625 -4.75 11.515625 -3.871094 C 11.515625 -3.113281 11.304688 -2.425781 10.882812 -1.804688 C 10.460938 -1.179688 9.828125 -0.6875 8.984375 -0.320312 C 8.140625 0.0429688 7.117188 0.226562 5.910156 0.226562 Z M 5.910156 0.226562 "/></g></g></g><g fill="#ffffff" fill-opacity="1"><g transform="translate(211.447269, 136.887856)"><g><path d="M 4.304688 -10.722656 L 0.0742188 -10.722656 L 0.0742188 -13.214844 L 11.589844 -13.214844 L 11.589844 -10.722656 L 7.363281 -10.722656 L 7.363281 0 L 4.304688 0 Z M 4.304688 -10.722656 "/></g></g></g><g fill="#ffffff" fill-opacity="1"><g transform="translate(227.826865, 136.887856)"><g><path d="M 1.566406 -13.214844 L 4.625 -13.214844 L 4.625 0 L 1.566406 0 Z M 1.566406 -13.214844 "/></g></g></g><g fill="#ffffff" fill-opacity="1"><g transform="translate(238.734972, 136.887856)"><g><path d="M 13.6875 -13.214844 L 13.6875 0 L 11.175781 0 L 4.585938 -8.023438 L 4.585938 0 L 1.566406 0 L 1.566406 -13.214844 L 4.097656 -13.214844 L 10.664062 -5.191406 L 10.664062 -13.214844 Z M 13.6875 -13.214844 "/></g></g></g><g fill="#ffffff" fill-opacity="1"><g transform="translate(258.699338, 136.887856)"><g><path d="M 10.496094 -6.816406 L 13.289062 -6.816406 L 13.289062 -1.453125 C 12.574219 -0.914062 11.742188 -0.496094 10.796875 -0.207031 C 9.855469 0.0820312 8.902344 0.226562 7.949219 0.226562 C 6.574219 0.226562 5.34375 -0.0664062 4.246094 -0.652344 C 3.152344 -1.238281 2.292969 -2.046875 1.671875 -3.085938 C 1.046875 -4.125 0.734375 -5.296875 0.734375 -6.605469 C 0.734375 -7.914062 1.046875 -9.089844 1.671875 -10.128906 C 2.292969 -11.167969 3.160156 -11.976562 4.265625 -12.5625 C 5.375 -13.148438 6.621094 -13.441406 8.003906 -13.441406 C 9.160156 -13.441406 10.210938 -13.246094 11.15625 -12.855469 C 12.101562 -12.464844 12.894531 -11.898438 13.535156 -11.15625 L 11.570312 -9.34375 C 10.628906 -10.339844 9.488281 -10.835938 8.15625 -10.835938 C 7.3125 -10.835938 6.5625 -10.660156 5.910156 -10.308594 C 5.253906 -9.953125 4.746094 -9.457031 4.378906 -8.816406 C 4.015625 -8.175781 3.832031 -7.4375 3.832031 -6.605469 C 3.832031 -5.789062 4.015625 -5.058594 4.378906 -4.417969 C 4.746094 -3.777344 5.25 -3.273438 5.898438 -2.917969 C 6.546875 -2.558594 7.285156 -2.378906 8.117188 -2.378906 C 9 -2.378906 9.792969 -2.566406 10.496094 -2.945312 Z M 10.496094 -6.816406 "/></g></g></g></svg>